HIERARCHY
ROOT Root
{
  OFFSET 0.0 0.0 0.0
  CHANNELS 6 Xposition Yposition Zposition Zrotation Yrotation Xrotation
  JOINT Hips
  {
    OFFSET 0.0 100.0 0.0
    CHANNELS 6 Xposition Yposition Zposition Zrotation Yrotation Xrotation
    JOINT Spine1
    {
      OFFSET -0.013727 5.003763 -0.053727
      CHANNELS 3 Zrotation Yrotation Xrotation
      JOINT Spine2
      {
        OFFSET -0.0 7.125301 -0.029825
        CHANNELS 3 Zrotation Yrotation Xrotation
        JOINT Chest
        {
          OFFSET -1e-06 7.550063 -0.815971
          CHANNELS 3 Zrotation Yrotation Xrotation
          JOINT Neck1
          {
            OFFSET -0.181677 26.311295 -0.553348
            CHANNELS 3 Zrotation Yrotation Xrotation
            JOINT Neck2
            {
              OFFSET -3e-06 7.709397 2.302585
              CHANNELS 3 Zrotation Yrotation Xrotation
              JOINT Head
              {
                OFFSET -5e-06 6.128916 1.953709
                CHANNELS 3 Zrotation Yrotation Xrotation
                JOINT HeadEnd
                {
                  OFFSET 0.003598 16.065403 -1.835379
                  CHANNELS 3 Zrotation Yrotation Xrotation
                }
                JOINT Jaw
                {
                  OFFSET 0.002637 0.475592 3.094941
                  CHANNELS 3 Zrotation Yrotation Xrotation
                }
                JOINT LeftEye
                {
                  OFFSET 3.206381 5.380205 7.586883
                  CHANNELS 3 Zrotation Yrotation Xrotation
                }
                JOINT RightEye
                {
                  OFFSET -3.22244 5.361869 7.558234
                  CHANNELS 3 Zrotation Yrotation Xrotation
                }
              }
            }
          }
          JOINT LeftShoulder
          {
            OFFSET 1.621652 23.237164 5.113413
            CHANNELS 3 Zrotation Yrotation Xrotation
            JOINT LeftArm
            {
              OFFSET 14.919846 2e-06 -5.502326
              CHANNELS 3 Zrotation Yrotation Xrotation
              JOINT LeftForeArm
              {
                OFFSET 28.739307 0.0 -0.002588
                CHANNELS 3 Zrotation Yrotation Xrotation
                JOINT LeftHand
                {
                  OFFSET 27.093981 -1e-06 0.002609
                  CHANNELS 3 Zrotation Yrotation Xrotation
                  JOINT LeftHandThumb1
                  {
                    OFFSET 2.276482 -1.392045 3.191413
                    CHANNELS 3 Zrotation Yrotation Xrotation
                    JOINT LeftHandThumb2
                    {
                      OFFSET 4.012836 -1.828127 1.641654
                      CHANNELS 3 Zrotation Yrotation Xrotation
                      JOINT LeftHandThumb3
                      {
                        OFFSET 2.798515 0.0 -3e-06
                        CHANNELS 3 Zrotation Yrotation Xrotation
                        JOINT LeftHandThumbEnd
                        {
                          OFFSET 3.180793 -4e-06 4e-06
                          CHANNELS 3 Zrotation Yrotation Xrotation
                        }
                      }
                    }
                  }
                  JOINT LeftHandIndex1
                  {
                    OFFSET 3.247555 -0.531998 2.296169
                    CHANNELS 3 Zrotation Yrotation Xrotation
                    JOINT LeftHandIndex2
                    {
                      OFFSET 6.364578 0.01206 0.1786
                      CHANNELS 3 Zrotation Yrotation Xrotation
                      JOINT LeftHandIndex3
                      {
                        OFFSET 3.662364 0.0 0.0
                        CHANNELS 3 Zrotation Yrotation Xrotation
                        JOINT LeftHandIndex4
                        {
                          OFFSET 2.329242 4e-06 4e-06
                          CHANNELS 3 Zrotation Yrotation Xrotation
                          JOINT LeftHandIndexEnd
                          {
                            OFFSET 2.759615 -0.180537 -0.113024
                            CHANNELS 3 Zrotation Yrotation Xrotation
                          }
                        }
                      }
                    }
                  }
                  JOINT LeftHandMiddle1
                  {
                    OFFSET 3.163495 0.240981 1.000332
                    CHANNELS 3 Zrotation Yrotation Xrotation
                    JOINT LeftHandMiddle2
                    {
                      OFFSET 6.19078 -0.259278 -1.002548
                      CHANNELS 3 Zrotation Yrotation Xrotation
                      JOINT LeftHandMiddle3
                      {
                        OFFSET 4.35652 -4e-06 -1e-06
                        CHANNELS 3 Zrotation Yrotation Xrotation
                        JOINT LeftHandMiddle4
                        {
                          OFFSET 2.996877 -8e-06 0.0
                          CHANNELS 3 Zrotation Yrotation Xrotation
                          JOINT LeftHandMiddleEnd
                          {
                            OFFSET 2.304287 -0.294569 -0.031741
                            CHANNELS 3 Zrotation Yrotation Xrotation
                          }
                        }
                      }
                    }
                  }
                  JOINT LeftHandRing1
                  {
                    OFFSET 2.882643 -0.053652 -0.322543
                    CHANNELS 3 Zrotation Yrotation Xrotation
                    JOINT LeftHandRing2
                    {
                      OFFSET 5.854541 -0.486202 -1.373841
                      CHANNELS 3 Zrotation Yrotation Xrotation
                      JOINT LeftHandRing3
                      {
                        OFFSET 4.350578 0.0 3e-06
                        CHANNELS 3 Zrotation Yrotation Xrotation
                        JOINT LeftHandRing4
                        {
                          OFFSET 2.651321 7e-06 2e-06
                          CHANNELS 3 Zrotation Yrotation Xrotation
                          JOINT LeftHandRingEnd
                          {
                            OFFSET 1.936105 0.077687 -7.1e-05
                            CHANNELS 3 Zrotation Yrotation Xrotation
                          }
                        }
                      }
                    }
                  }
                  JOINT LeftHandPinky1
                  {
                    OFFSET 2.8655 -0.310005 -1.600378
                    CHANNELS 3 Zrotation Yrotation Xrotation
                    JOINT LeftHandPinky2
                    {
                      OFFSET 5.087849 -1.331141 -1.77123
                      CHANNELS 3 Zrotation Yrotation Xrotation
                      JOINT LeftHandPinky3
                      {
                        OFFSET 3.070974 4e-06 0.0
                        CHANNELS 3 Zrotation Yrotation Xrotation
                        JOINT LeftHandPinky4
                        {
                          OFFSET 1.549672 0.0 1e-06
                          CHANNELS 3 Zrotation Yrotation Xrotation
                          JOINT LeftHandPinkyEnd
                          {
                            OFFSET 1.944893 -0.157802 0.057219
                            CHANNELS 3 Zrotation Yrotation Xrotation
                          }
                        }
                      }
                    }
                  }
                }
              }
            }
          }
          JOINT RightShoulder
          {
            OFFSET -1.380118 23.180309 5.214158
            CHANNELS 3 Zrotation Yrotation Xrotation
            JOINT RightArm
            {
              OFFSET -15.037196 1.2e-05 -5.545604
              CHANNELS 3 Zrotation Yrotation Xrotation
              JOINT RightForeArm
              {
                OFFSET -28.736639 2e-06 -0.002597
                CHANNELS 3 Zrotation Yrotation Xrotation
                JOINT RightHand
                {
                  OFFSET -27.133619 -0.0 0.002613
                  CHANNELS 3 Zrotation Yrotation Xrotation
                  JOINT RightHandThumb1
                  {
                    OFFSET -2.274032 -1.383988 3.163127
                    CHANNELS 3 Zrotation Yrotation Xrotation
                    JOINT RightHandThumb2
                    {
                      OFFSET -4.011429 -1.827466 1.640914
                      CHANNELS 3 Zrotation Yrotation Xrotation
                      JOINT RightHandThumb3
                      {
                        OFFSET -2.794935 -4e-06 -3e-06
                        CHANNELS 3 Zrotation Yrotation Xrotation
                        JOINT RightHandThumbEnd
                        {
                          OFFSET -3.183852 4e-06 1e-06
                          CHANNELS 3 Zrotation Yrotation Xrotation
                        }
                      }
                    }
                  }
                  JOINT RightHandIndex1
                  {
                    OFFSET -3.253266 -0.520057 2.282866
                    CHANNELS 3 Zrotation Yrotation Xrotation
                    JOINT RightHandIndex2
                    {
                      OFFSET -6.341917 0.012471 0.178266
                      CHANNELS 3 Zrotation Yrotation Xrotation
                      JOINT RightHandIndex3
                      {
                        OFFSET -3.654871 -8e-06 -0.0
                        CHANNELS 3 Zrotation Yrotation Xrotation
                        JOINT RightHandIndex4
                        {
                          OFFSET -2.327586 0.0 1e-06
                          CHANNELS 3 Zrotation Yrotation Xrotation
                          JOINT RightHandIndexEnd
                          {
                            OFFSET -2.76179 -0.180656 -0.113078
                            CHANNELS 3 Zrotation Yrotation Xrotation
                          }
                        }
                      }
                    }
                  }
                  JOINT RightHandMiddle1
                  {
                    OFFSET -3.168106 0.246593 1.00103
                    CHANNELS 3 Zrotation Yrotation Xrotation
                    JOINT RightHandMiddle2
                    {
                      OFFSET -6.180828 -0.258836 -1.000895
                      CHANNELS 3 Zrotation Yrotation Xrotation
                      JOINT RightHandMiddle3
                      {
                        OFFSET -4.348901 0.0 -0.0
                        CHANNELS 3 Zrotation Yrotation Xrotation
                        JOINT RightHandMiddle4
                        {
                          OFFSET -3.00024 -4e-06 -2e-06
                          CHANNELS 3 Zrotation Yrotation Xrotation
                          JOINT RightHandMiddleEnd
                          {
                            OFFSET -2.30252 -0.29437 -0.031706
                            CHANNELS 3 Zrotation Yrotation Xrotation
                          }
                        }
                      }
                    }
                  }
                  JOINT RightHandRing1
                  {
                    OFFSET -2.88569 -0.067952 -0.308858
                    CHANNELS 3 Zrotation Yrotation Xrotation
                    JOINT RightHandRing2
                    {
                      OFFSET -5.854198 -0.48613 -1.373731
                      CHANNELS 3 Zrotation Yrotation Xrotation
                      JOINT RightHandRing3
                      {
                        OFFSET -4.33881 -4e-06 -0.0
                        CHANNELS 3 Zrotation Yrotation Xrotation
                        JOINT RightHandRing4
                        {
                          OFFSET -2.654903 -4e-06 4e-06
                          CHANNELS 3 Zrotation Yrotation Xrotation
                          JOINT RightHandRingEnd
                          {
                            OFFSET -1.933568 0.077527 -5.2e-05
                            CHANNELS 3 Zrotation Yrotation Xrotation
                          }
                        }
                      }
                    }
                  }
                  JOINT RightHandPinky1
                  {
                    OFFSET -2.866425 -0.342796 -1.584145
                    CHANNELS 3 Zrotation Yrotation Xrotation
                    JOINT RightHandPinky2
                    {
                      OFFSET -5.091371 -1.332055 -1.772385
                      CHANNELS 3 Zrotation Yrotation Xrotation
                      JOINT RightHandPinky3
                      {
                        OFFSET -3.062664 -4e-06 1e-06
                        CHANNELS 3 Zrotation Yrotation Xrotation
                        JOINT RightHandPinky4
                        {
                          OFFSET -1.546529 4e-06 -2e-06
                          CHANNELS 3 Zrotation Yrotation Xrotation
                          JOINT RightHandPinkyEnd
                          {
                            OFFSET -1.945119 -0.157718 0.057211
                            CHANNELS 3 Zrotation Yrotation Xrotation
                          }
                        }
                      }
                    }
                  }
                }
              }
            }
          }
        }
      }
    }
    JOINT LeftLeg
    {
      OFFSET 10.043214 -8.434526 2.595655
      CHANNELS 3 Zrotation Yrotation Xrotation
      JOINT LeftShin
      {
        OFFSET -1e-06 -43.221752 -0.802913
        CHANNELS 3 Zrotation Yrotation Xrotation
        JOINT LeftFoot
        {
          OFFSET 1e-06 -42.155094 -3.481523
          CHANNELS 3 Zrotation Yrotation Xrotation
          JOINT LeftToeBase
          {
            OFFSET 0.0 -5.059472 13.231529
            CHANNELS 3 Zrotation Yrotation Xrotation
            JOINT LeftToeEnd
            {
              OFFSET -0.009607 -1.647619 6.513017
              CHANNELS 3 Zrotation Yrotation Xrotation
            }
          }
        }
      }
    }
    JOINT RightLeg
    {
      OFFSET -10.047278 -8.29526 2.620317
      CHANNELS 3 Zrotation Yrotation Xrotation
      JOINT RightShin
      {
        OFFSET 1e-06 -43.362206 -0.805556
        CHANNELS 3 Zrotation Yrotation Xrotation
        JOINT RightFoot
        {
          OFFSET 2e-06 -42.117393 -3.478398
          CHANNELS 3 Zrotation Yrotation Xrotation
          JOINT RightToeBase
          {
            OFFSET -0.0 -5.079609 13.284196
            CHANNELS 3 Zrotation Yrotation Xrotation
            JOINT RightToeEnd
            {
              OFFSET 0.009532 -1.634378 6.460591
              CHANNELS 3 Zrotation Yrotation Xrotation
            }
          }
        }
      }
    }
  }
}
MOTION
Frames: 4
Frame Time: 0.03333333333333333
-6.003188 0.0 5.527469 0.0 9.306099 0.0 0.0 105.093971 0.0 4.850752 -0.22047 2.363112 -1.714325 0.17971 -2.04603 -1.139591 0.740824 -4.799724 -4.536747 -1.363943 9.342813 5.370709 1.71331 -9.503895 -1.629112 -2.493969 -3.387901 -0.066837 -5.804175 -11.249114 -0.000892 -0.000112 -0.006469 -0.001955 0.048551 0.000976 0.649848 -3.669072 -10.444858 -0.649258 3.772705 -10.390311 -0.166689 -2.184968 0.027009 -12.56772 -55.438217 -65.096733 -169.369797 -77.211777 173.205597 -7.186327 24.363333 79.704018 -5.90209 9.86926 0.745109 -10.940363 -0.321651 7.154771 -0.014626 8.761602 0.01135 -17.845247 17.035002 6.628755 -1.843759 2.501191 -2.511534 -10.157679 4.675883 4.624998 -20.985615 0.003097 0.006412 -21.227562 2.467449 -3.579391 0.002956 0.000225 0.002531 -1.365681 2.248776 -0.738445 -21.331734 0.572267 3.012838 -13.817322 0.0042 -0.00489 -23.89959 -0.233117 -0.836733 -66.348312 2.125897 -0.569081 -0.296565 1.692001 0.847572 -14.218467 0.074825 1.2972 -34.191658 -0.271734 0.977884 -20.020592 0.968837 1.230435 0.002393 -0.003812 -0.002223 -3.449843 0.797663 0.501438 -15.926476 -3.168924 2.98591 -6.325474 0.003864 0.029052 -18.117313 3.655823 -4.906469 0.003537 -0.004417 -0.005281 2.538394 8.782149 4.519487 1.456626 50.30838 -47.899353 170.537415 76.384026 172.031555 3.460898 -23.005436 45.809345 2.270689 -5.251002 -3.206073 14.304098 -0.805082 6.918622 -0.003224 -12.692525 0.002048 15.768329 -16.814886 2.455457 1.684232 -1.935441 -2.874255 4.676177 -4.173801 5.020386 11.024039 0.015232 -0.009145 12.076776 -3.728426 -2.850911 -0.004613 -0.001338 -0.002933 1.280569 -1.898573 -1.486566 14.785953 0.537763 3.862373 14.214319 -1.329118 -6.643381 19.570005 0.14651 -0.643324 51.572285 -1.174821 -7.124759 0.340648 -1.499424 -0.0288 20.20727 3.678106 2.336198 18.767742 0.010751 0.006591 10.742292 -0.484196 1.391725 0.001426 -0.006196 -0.000199 3.240306 0.33318 -0.562131 21.494158 11.808468 2.289603 8.14843 0.00931 0.004141 18.357277 -3.793956 -4.917876 0.003199 0.002384 0.011144 3.28749 8.404984 -3.976524 -0.054251 -0.776311 6.169921 -9.72336 -0.263568 28.312843 1.994505 -2.048742 -10.448115 -0.001363 0.001431 0.003588 -10.529449 -9.583875 -0.880009 0.001514 0.468797 16.854374 8.390095 4.695765 18.146019 -1.560891 0.911278 -16.420332 -0.000275 0.00061 0.001632 
-5.917856 0.0 5.590755 0.0 9.567526 0.0 0.0 104.96637 0.0 4.931757 -0.20282 2.074121 -1.71777 0.125792 -2.151756 -1.121988 0.764703 -4.840423 -4.561487 -1.41721 9.454046 5.228909 1.677844 -9.277838 -1.631293 -2.526675 -3.38018 -0.066947 -5.874451 -10.939619 0.000139 -0.000612 0.006544 0.00459 0.059973 0.007944 0.658368 -3.649539 -10.412375 -0.6502 3.775098 -10.364573 -0.30744 -1.852539 0.192964 -11.452035 -56.791367 -65.286415 -168.913025 -79.455322 172.630783 -6.402333 26.686609 81.826645 -5.936198 9.883037 0.61947 -10.930511 -0.369577 7.093364 0.001686 8.762312 0.011474 -17.856644 17.038103 6.578597 -1.846542 2.495605 -2.503731 -10.144779 4.659408 4.618799 -20.964603 0.007467 0.025971 -21.209801 2.421812 -3.567592 -0.004252 0.010522 -0.003164 -1.350773 2.215678 -0.754151 -21.342287 0.584048 3.026031 -13.809633 -7.4e-05 0.004877 -23.906797 -0.241777 -0.811053 -66.406326 2.194767 -0.63321 -0.272158 1.651656 0.850311 -14.230783 0.099759 1.297244 -34.191429 -0.285423 0.996651 -20.020807 0.945945 1.217373 0.0002 -0.006764 0.000356 -3.430043 0.746555 0.522645 -15.93162 -3.157387 2.989039 -6.333045 0.001835 0.012208 -18.134052 3.642952 -4.883782 -0.003526 0.01005 -0.000728 2.762421 8.552484 4.731932 0.019321 50.330742 -48.666306 169.501862 77.273964 171.16188 4.500551 -23.66721 45.964413 2.24639 -5.229659 -3.127098 14.283639 -0.840522 6.985569 -0.013878 -12.67811 -0.000697 15.583755 -16.748831 2.415242 1.666458 -1.954684 -2.889739 4.733393 -4.168327 4.995398 11.000113 0.012345 0.007185 12.097295 -3.754012 -2.865502 0.001464 0.002636 -0.003402 1.287309 -1.935628 -1.503821 14.804963 0.588342 3.876204 14.261964 -1.337942 -6.660327 19.656012 0.136317 -0.667495 51.572414 -1.166775 -7.045432 0.345104 -1.518567 -0.035185 20.244658 3.700618 2.315988 18.79928 0.007523 0.009511 10.764529 -0.486461 1.397937 -0.002132 -0.003143 0.005258 3.264894 0.300374 -0.582443 21.494757 11.857819 2.263663 8.164635 -0.002729 -0.002543 18.395649 -3.794167 -4.926939 0.003591 -0.006754 0.00668 3.224216 8.201099 -3.623408 -0.0674 -0.756787 6.189437 -9.79326 -0.665801 27.510998 1.986141 -2.040042 -10.469706 -0.001118 0.005495 0.019543 -10.64959 -9.44377 -0.3386 -0.004525 0.451541 16.753845 8.281618 4.226133 17.307415 -1.584106 0.943031 -16.587086 0.001504 0.00055 0.027457 
-5.917332 0.0 5.64334 0.0 9.865688 0.0 0.0 104.820396 0.0 5.007577 -0.186974 1.819723 -1.758993 0.096262 -2.300011 -1.149944 0.786005 -4.897371 -4.623664 -1.394962 9.554501 5.040133 1.621691 -9.148594 -1.662309 -2.61692 -3.342209 -0.009765 -6.122107 -10.473438 -0.000182 7.6e-05 0.006323 0.002219 0.057208 0.013876 0.662944 -3.648977 -10.399813 -0.656097 3.766029 -10.339847 -0.204888 -2.030677 0.211688 -10.027608 -58.355858 -65.619637 -168.170792 -82.022186 172.062775 -5.424277 27.934139 82.614403 -5.84279 9.778336 0.825378 -10.934244 -0.342496 7.225265 -0.016729 8.793855 -0.006865 -17.212469 17.045059 6.901806 -1.847323 2.497899 -2.534378 -10.209832 4.692817 4.615977 -21.007689 0.0078 -0.012537 -21.295233 2.479007 -3.619976 0.003976 -0.019078 -0.001597 -1.374978 2.25779 -0.771063 -21.353382 0.58926 3.009042 -13.833227 -0.017078 -0.014142 -23.903297 -0.247075 -0.875415 -65.325066 2.095612 -0.564564 -0.316525 1.706402 0.811603 -14.224043 0.086665 1.295655 -34.249844 -0.275584 0.937086 -20.0431 0.952497 1.201572 0.000916 -0.000298 -0.000541 -3.473562 0.824073 0.470158 -15.918514 -3.187692 3.015898 -6.345462 -0.004211 -0.021824 -18.14468 3.657133 -4.935812 0.002192 0.007453 -0.000966 2.863447 8.760678 5.57653 -0.498335 50.274429 -49.208576 169.062759 78.2257 170.819702 3.871221 -23.891771 47.296776 2.23703 -5.19993 -3.08732 14.280951 -0.834908 6.986999 0.011459 -12.698758 -0.016518 15.253075 -16.717207 2.406049 1.663635 -1.959512 -2.882132 4.737537 -4.177191 4.986269 11.045531 -0.015035 -0.009028 12.120268 -3.731787 -2.872427 0.003968 -0.006134 0.003573 1.319148 -1.949817 -1.506576 14.790504 0.57595 3.864936 14.258691 -1.340005 -6.677574 19.633448 0.135451 -0.670024 51.144341 -1.121719 -7.094405 0.367495 -1.533668 -0.039103 20.218466 3.695569 2.318696 18.785717 0.001301 0.005148 10.752679 -0.489537 1.385707 -0.0 1e-06 -0.0 3.318029 0.283031 -0.610682 21.460386 11.826464 2.290125 8.179837 -0.002827 -0.006995 18.40696 -3.794759 -4.926131 -0.000676 0.005028 -0.002283 3.198529 7.936386 -3.409937 -0.068712 -0.726983 6.19066 -9.816066 -1.022336 26.762926 1.970446 -2.050853 -10.305801 -4.6e-05 -0.00102 0.000588 -10.70091 -9.288948 0.027918 -0.019158 0.424903 16.655436 8.225492 3.799831 16.218712 -1.581256 0.946398 -16.423695 0.001399 0.001688 0.007804 
-5.910202 0.0 5.736803 0.0 10.118742 0.0 0.0 104.67054 0.0 5.062183 -0.173279 1.611952 -1.827444 0.089998 -2.454041 -1.181076 0.799382 -4.923085 -4.696404 -1.295986 9.597629 4.737401 1.574121 -9.176918 -1.709972 -2.807406 -3.295125 0.133672 -6.452196 -9.906437 0.000486 0.000155 1.3e-05 -0.008028 0.031449 0.006976 0.657414 -3.671875 -10.407063 -0.67265 3.738831 -10.352832 -0.049027 -1.544036 0.177939 -7.668608 -59.647598 -66.418289 -164.207397 -84.716537 168.058289 -4.472432 28.738386 82.439972 -5.851365 9.893436 0.668705 -10.944296 -0.353465 7.162313 -0.006738 8.752354 -0.003199 -16.310036 16.926922 7.412406 -1.835781 2.488281 -2.509868 -10.146756 4.686427 4.631608 -20.963818 -0.012411 0.000693 -21.186354 2.44958 -3.584555 -0.001934 0.010031 -0.000262 -1.358125 2.216144 -0.732079 -21.310919 0.607411 2.987586 -13.806225 0.012055 -0.004739 -23.855257 -0.240997 -0.85415 -64.041504 2.128151 -0.416968 -0.28641 1.639996 0.827671 -14.207015 0.139332 1.293325 -34.201904 -0.27132 0.960589 -20.025961 0.966642 1.191791 -0.003706 -0.003023 0.003653 -3.429057 0.75109 0.524938 -15.914754 -3.125931 2.962729 -6.328292 -0.00446 -0.001008 -18.11446 3.648615 -4.906772 -0.004626 -0.000728 -0.004083 2.842111 8.285143 4.630127 -0.678295 50.011311 -49.502007 169.906906 78.939896 171.736252 2.657969 -23.939598 49.209629 2.217173 -5.303754 -3.258479 14.281121 -0.840917 6.941695 -0.005878 -12.680167 0.012513 15.002006 -16.550432 2.36225 1.66073 -1.943159 -2.883389 4.730732 -4.178017 5.005317 11.022234 -0.001892 -0.006504 12.111216 -3.736616 -2.862605 0.003735 0.002508 0.000216 1.284983 -1.889424 -1.4866 14.789819 0.539381 3.861063 14.239347 -1.351778 -6.662238 19.599939 0.147072 -0.636901 50.824905 -1.018128 -7.097722 0.362533 -1.470199 -0.015051 20.18609 3.666108 2.294056 18.776438 -0.01479 -0.008974 10.743361 -0.474356 1.396743 -0.003556 0.002117 -0.011225 3.280202 0.329293 -0.570942 21.451012 11.833522 2.253586 8.16589 -0.016906 -0.010945 18.359028 -3.806915 -4.925023 -0.008281 0.009424 0.005994 3.155337 7.70887 -3.143642 -0.051113 -0.726038 6.096117 -9.938627 -1.321806 25.98188 1.974524 -2.081118 -10.121517 0.001576 -0.001263 0.012139 -10.750842 -9.093284 0.570428 -0.016276 0.387899 16.189438 8.184108 3.365695 15.203443 -1.546898 0.898943 -15.894166 -0.000206 0.000848 -0.003732 
